<svg xmlns="http://www.w3.org/2000/svg" viewBox="0 0 203.74 203.74"><defs><style>.cls-1{fill:#231f20;}.cls-2{fill:#feb314;}.cls-3{fill:#fff;}</style></defs><g id="Layer_2" data-name="Layer 2"><g id="Layer_1-2" data-name="Layer 1"><rect class="cls-1" width="203.74" height="203.74" rx="20"/><path class="cls-2" d="M171.15,60.7a7.83,7.83,0,0,0-10.3,2.94l-40.26,64a6.21,6.21,0,0,1-10.53,0L82.55,83.89l-1.42-2.26a24.8,24.8,0,1,1,45.71-6.32,27.92,27.92,0,0,1-5.87,11,7.55,7.55,0,0,0,1.49,10.88,7.74,7.74,0,0,0,10.23-1.34,39.9,39.9,0,1,0-64.88-7l.27.5.39.63q.44.73.9,1.44l37,58.89h0a5.35,5.35,0,0,1-9.06,0l-54.67-87a7.56,7.56,0,0,0-12.8,8L93.21,172.08a10.22,10.22,0,0,0,8.66,4.79h0a10.16,10.16,0,0,0,8.66-4.79L173.87,71.33A7.55,7.55,0,0,0,171.15,60.7Z"/><circle class="cls-3" cx="102.66" cy="69.41" r="15.93"/><circle class="cls-3" cx="62.39" cy="34.93" r="8.06"/></g></g></svg>